<svg width="39" height="43" viewBox="0 0 39 43" fill="none" xmlns="http://www.w3.org/2000/svg">
<path d="M27.75 21.5C27.75 17.2837 25.6533 13.6405 22.6111 11.8847V31.1272C25.6533 29.3595 27.75 25.7164 27.75 21.5Z" fill="#111827"/>
<path d="M0 14.3333V28.6667H8.22219L18.5 40.6112V2.38885L8.22219 14.3333H0Z" fill="#111827"/>
<path d="M22.6111 0.5495V5.48252C28.5517 7.537 32.8889 13.9272 32.8889 21.5C32.8889 29.0728 28.5517 35.463 22.6111 37.5175V42.4505C30.8436 40.2767 37 31.7364 37 21.5C37 11.2637 30.8436 2.72335 22.6111 0.5495Z" fill="#111827"/>
<rect x="37.9481" y="10.2062" width="37.2119" height="5.81" transform="rotate(136.383 37.9481 10.2062)" fill="white"/>
<rect x="34.2225" y="36.0871" width="35.669" height="5.80945" transform="rotate(-136.174 34.2225 36.0871)" fill="white"/>
</svg>
